<svg width="289" height="126" viewBox="0 0 289 126" fill="none" xmlns="http://www.w3.org/2000/svg">
<g filter="url(#filter0_d_1_776)">
<circle cx="144" cy="38" r="37" fill="white"/>
</g>
<path d="M153.167 13H134.833V28.8333H119V47.1667H134.833V63H153.167V47.1667H169V28.8333H153.167V13ZM165.667 32.1667V43.8333H149.833V59.6667H138.167V43.8333H122.333V32.1667H138.167V16.3333H149.833V32.1667H165.667Z" fill="#2F78FF"/>
<mask id="path-3-outside-1_1_776" maskUnits="userSpaceOnUse" x="49" y="94" width="194" height="26" fill="black">
<rect fill="white" x="49" y="94" width="194" height="26"/>
<path d="M50.8637 116L54.3077 96.4H55.2877L61.5597 111.1C61.7744 111.576 61.9891 112.075 62.2037 112.598C62.4277 113.111 62.6424 113.62 62.8477 114.124C62.9317 113.62 63.0204 113.102 63.1137 112.57C63.2071 112.038 63.2957 111.548 63.3797 111.1L65.9557 96.4H66.9917L63.5477 116H62.5677L56.2957 101.356C56.1557 101.039 56.0111 100.712 55.8617 100.376C55.7217 100.031 55.5771 99.6853 55.4277 99.34C55.2877 98.9853 55.1477 98.6307 55.0077 98.276C54.9517 98.6213 54.8911 98.9713 54.8257 99.326C54.7697 99.6807 54.7091 100.031 54.6437 100.376C54.5877 100.721 54.5317 101.048 54.4757 101.356L51.8997 116H50.8637ZM69.4021 116L71.9221 101.692H72.9301L70.4381 116H69.4021ZM72.9581 98.556C72.7621 98.556 72.5988 98.4907 72.4681 98.36C72.3468 98.2293 72.2861 98.0613 72.2861 97.856C72.2861 97.576 72.3795 97.3427 72.5661 97.156C72.7528 96.9693 72.9768 96.876 73.2381 96.876C73.4341 96.876 73.5928 96.9413 73.7141 97.072C73.8448 97.2027 73.9101 97.38 73.9101 97.604C73.9101 97.8653 73.8215 98.0893 73.6441 98.276C73.4668 98.4627 73.2381 98.556 72.9581 98.556ZM75.7172 116L79.1892 96.288L80.2812 95.784L76.7532 116H75.7172ZM81.8963 116L85.3683 96.288L86.4603 95.784L84.2763 108.272L91.3043 101.692H92.5643L88.3923 105.612L91.7803 116H90.7163L87.5803 106.368L84.0523 109.672L82.9323 116H81.8963ZM98.1404 116.336C96.9831 116.336 96.0684 115.981 95.3964 115.272C94.7244 114.563 94.3884 113.592 94.3884 112.36C94.3884 111.352 94.6311 110.456 95.1164 109.672C95.6018 108.879 96.2644 108.258 97.1044 107.81C97.9538 107.353 98.9151 107.124 99.9884 107.124C100.735 107.124 101.426 107.245 102.06 107.488C102.695 107.721 103.311 108.085 103.908 108.58L104.244 106.76C104.543 105.192 104.492 104.053 104.09 103.344C103.689 102.635 102.9 102.28 101.724 102.28C101.099 102.28 100.399 102.401 99.6244 102.644C98.8591 102.887 98.0564 103.241 97.2164 103.708L97.0204 102.812C97.9444 102.308 98.7938 101.939 99.5684 101.706C100.343 101.473 101.071 101.356 101.752 101.356C102.742 101.356 103.53 101.552 104.118 101.944C104.706 102.327 105.094 102.901 105.28 103.666C105.476 104.431 105.476 105.388 105.28 106.536L103.628 116H102.62L102.984 113.9C102.256 114.693 101.482 115.3 100.66 115.72C99.8484 116.131 99.0084 116.336 98.1404 116.336ZM98.1964 115.412C99.0551 115.412 99.8951 115.179 100.716 114.712C101.538 114.245 102.368 113.536 103.208 112.584L103.768 109.476C103.171 109.009 102.546 108.659 101.892 108.426C101.248 108.193 100.595 108.076 99.9324 108.076C99.0924 108.076 98.3411 108.267 97.6784 108.65C97.0158 109.023 96.4931 109.532 96.1104 110.176C95.7278 110.82 95.5364 111.548 95.5364 112.36C95.5364 113.293 95.7744 114.035 96.2504 114.586C96.7358 115.137 97.3844 115.412 98.1964 115.412ZM108.693 116L111.213 101.692H112.193L111.745 104.268C112.221 103.372 112.865 102.663 113.677 102.14C114.489 101.617 115.357 101.356 116.281 101.356C117.27 101.356 118.064 101.585 118.661 102.042C119.268 102.499 119.669 103.171 119.865 104.058C120.07 104.945 120.061 106.032 119.837 107.32L118.297 116H117.289L118.801 107.348C119.1 105.621 119.03 104.352 118.591 103.54C118.152 102.719 117.317 102.308 116.085 102.308C114.797 102.308 113.728 102.77 112.879 103.694C112.03 104.618 111.456 105.948 111.157 107.684L109.729 116H108.693ZM126.546 116.336C125.613 116.336 124.978 116.042 124.642 115.454C124.306 114.857 124.25 113.928 124.474 112.668L126.238 102.616H123.886L124.054 101.692H126.406L127.358 96.288L128.45 95.784L127.414 101.692H130.97L130.802 102.616H127.246L125.482 112.78C125.314 113.732 125.323 114.399 125.51 114.782C125.697 115.165 126.098 115.356 126.714 115.356C127.041 115.356 127.391 115.295 127.764 115.174C128.137 115.053 128.506 114.889 128.87 114.684L128.562 115.748C127.89 116.14 127.218 116.336 126.546 116.336ZM132.099 116L135.571 96.288L136.663 95.784L135.179 104.268C135.646 103.381 136.285 102.677 137.097 102.154C137.919 101.622 138.782 101.356 139.687 101.356C140.686 101.356 141.489 101.58 142.095 102.028C142.702 102.476 143.103 103.139 143.299 104.016C143.495 104.893 143.477 105.976 143.243 107.264L141.703 116H140.695L142.235 107.152C142.515 105.528 142.431 104.315 141.983 103.512C141.535 102.709 140.723 102.308 139.547 102.308C138.278 102.308 137.205 102.789 136.327 103.75C135.45 104.711 134.862 106.041 134.563 107.74L133.135 116H132.099ZM161.135 116.336L157.663 101.356C157.579 101.02 157.5 100.684 157.425 100.348C157.351 100.012 157.271 99.648 157.187 99.256C157.15 99.536 157.094 99.8813 157.019 100.292C156.945 100.693 156.879 101.048 156.823 101.356L154.247 116H153.211L156.655 96.4H157.579L160.995 111.296C161.079 111.66 161.168 112.052 161.261 112.472C161.355 112.883 161.443 113.293 161.527 113.704C161.751 113.284 161.98 112.873 162.213 112.472C162.447 112.061 162.675 111.669 162.899 111.296L171.523 96.4H172.503L169.059 116H168.023L170.599 101.356C170.655 101.02 170.711 100.684 170.767 100.348C170.833 100.003 170.898 99.6573 170.963 99.312C170.767 99.6573 170.571 100.003 170.375 100.348C170.179 100.684 169.983 101.02 169.787 101.356L161.135 116.336ZM179.376 116.336C178.396 116.336 177.57 116.117 176.898 115.678C176.235 115.23 175.731 114.586 175.386 113.746C175.04 112.897 174.868 111.865 174.868 110.652C174.868 109.233 175.045 107.955 175.4 106.816C175.764 105.677 176.263 104.702 176.898 103.89C177.532 103.069 178.27 102.443 179.11 102.014C179.95 101.575 180.85 101.356 181.812 101.356C182.614 101.356 183.338 101.519 183.982 101.846C184.635 102.173 185.148 102.691 185.522 103.4C185.904 104.109 186.096 105.043 186.096 106.2C186.096 106.573 186.063 106.993 185.998 107.46C185.942 107.917 185.844 108.477 185.704 109.14H176.044C175.904 110.363 175.918 111.441 176.086 112.374C176.263 113.298 176.636 114.021 177.206 114.544C177.775 115.067 178.582 115.328 179.628 115.328C180.16 115.328 180.72 115.225 181.308 115.02C181.896 114.805 182.474 114.488 183.044 114.068L183.576 114.852C183.006 115.281 182.376 115.636 181.686 115.916C181.004 116.196 180.234 116.336 179.376 116.336ZM176.184 108.216H184.836C185.004 107.143 185.036 106.158 184.934 105.262C184.831 104.357 184.537 103.633 184.052 103.092C183.566 102.551 182.829 102.28 181.84 102.28C180.729 102.28 179.786 102.565 179.012 103.134C178.246 103.694 177.63 104.427 177.164 105.332C176.706 106.237 176.38 107.199 176.184 108.216ZM193.785 116.336C192.404 116.336 191.321 115.809 190.537 114.754C189.753 113.69 189.361 112.22 189.361 110.344C189.361 108.571 189.65 107.012 190.229 105.668C190.808 104.315 191.61 103.26 192.637 102.504C193.673 101.739 194.868 101.356 196.221 101.356C197.061 101.356 197.817 101.585 198.489 102.042C199.161 102.49 199.637 103.092 199.917 103.848L201.261 96.288L202.353 95.784L198.825 116H197.789L198.153 113.956C197.472 114.74 196.762 115.333 196.025 115.734C195.288 116.135 194.541 116.336 193.785 116.336ZM193.785 115.328C194.625 115.328 195.451 115.067 196.263 114.544C197.084 114.021 197.808 113.293 198.433 112.36L199.665 105.248C199.357 104.352 198.89 103.647 198.265 103.134C197.649 102.621 196.949 102.364 196.165 102.364C195.026 102.364 194.028 102.7 193.169 103.372C192.31 104.035 191.643 104.968 191.167 106.172C190.691 107.367 190.453 108.757 190.453 110.344C190.453 111.865 190.752 113.079 191.349 113.984C191.956 114.88 192.768 115.328 193.785 115.328ZM204.07 116L206.59 101.692H207.598L205.106 116H204.07ZM207.626 98.556C207.43 98.556 207.267 98.4907 207.136 98.36C207.015 98.2293 206.954 98.0613 206.954 97.856C206.954 97.576 207.047 97.3427 207.234 97.156C207.421 96.9693 207.645 96.876 207.906 96.876C208.102 96.876 208.261 96.9413 208.382 97.072C208.513 97.2027 208.578 97.38 208.578 97.604C208.578 97.8653 208.489 98.0893 208.312 98.276C208.135 98.4627 207.906 98.556 207.626 98.556ZM214.837 116.336C213.465 116.336 212.392 115.841 211.617 114.852C210.852 113.863 210.469 112.481 210.469 110.708C210.469 108.907 210.745 107.301 211.295 105.892C211.855 104.483 212.621 103.377 213.591 102.574C214.571 101.762 215.687 101.356 216.937 101.356C217.945 101.356 218.795 101.641 219.485 102.21C220.185 102.77 220.577 103.493 220.661 104.38L219.709 104.744C219.588 103.988 219.28 103.405 218.785 102.994C218.291 102.574 217.665 102.364 216.909 102.364C215.873 102.364 214.954 102.723 214.151 103.442C213.349 104.161 212.714 105.15 212.247 106.41C211.79 107.661 211.561 109.093 211.561 110.708C211.561 112.192 211.846 113.335 212.415 114.138C212.985 114.931 213.792 115.328 214.837 115.328C215.612 115.328 216.317 115.095 216.951 114.628C217.595 114.161 218.104 113.508 218.477 112.668L219.429 113.06C218.925 114.124 218.277 114.936 217.483 115.496C216.699 116.056 215.817 116.336 214.837 116.336ZM226.355 116.336C225.198 116.336 224.283 115.981 223.611 115.272C222.939 114.563 222.603 113.592 222.603 112.36C222.603 111.352 222.846 110.456 223.331 109.672C223.817 108.879 224.479 108.258 225.319 107.81C226.169 107.353 227.13 107.124 228.203 107.124C228.95 107.124 229.641 107.245 230.275 107.488C230.91 107.721 231.526 108.085 232.123 108.58L232.459 106.76C232.758 105.192 232.707 104.053 232.305 103.344C231.904 102.635 231.115 102.28 229.939 102.28C229.314 102.28 228.614 102.401 227.839 102.644C227.074 102.887 226.271 103.241 225.431 103.708L225.235 102.812C226.159 102.308 227.009 101.939 227.783 101.706C228.558 101.473 229.286 101.356 229.967 101.356C230.957 101.356 231.745 101.552 232.333 101.944C232.921 102.327 233.309 102.901 233.495 103.666C233.691 104.431 233.691 105.388 233.495 106.536L231.843 116H230.835L231.199 113.9C230.471 114.693 229.697 115.3 228.875 115.72C228.063 116.131 227.223 116.336 226.355 116.336ZM226.411 115.412C227.27 115.412 228.11 115.179 228.931 114.712C229.753 114.245 230.583 113.536 231.423 112.584L231.983 109.476C231.386 109.009 230.761 108.659 230.107 108.426C229.463 108.193 228.81 108.076 228.147 108.076C227.307 108.076 226.556 108.267 225.893 108.65C225.231 109.023 224.708 109.532 224.325 110.176C223.943 110.82 223.751 111.548 223.751 112.36C223.751 113.293 223.989 114.035 224.465 114.586C224.951 115.137 225.599 115.412 226.411 115.412ZM236.717 116L240.189 96.288L241.281 95.784L237.753 116H236.717Z"/>
</mask>
<path d="M50.8637 116L54.3077 96.4H55.2877L61.5597 111.1C61.7744 111.576 61.9891 112.075 62.2037 112.598C62.4277 113.111 62.6424 113.62 62.8477 114.124C62.9317 113.62 63.0204 113.102 63.1137 112.57C63.2071 112.038 63.2957 111.548 63.3797 111.1L65.9557 96.4H66.9917L63.5477 116H62.5677L56.2957 101.356C56.1557 101.039 56.0111 100.712 55.8617 100.376C55.7217 100.031 55.5771 99.6853 55.4277 99.34C55.2877 98.9853 55.1477 98.6307 55.0077 98.276C54.9517 98.6213 54.8911 98.9713 54.8257 99.326C54.7697 99.6807 54.7091 100.031 54.6437 100.376C54.5877 100.721 54.5317 101.048 54.4757 101.356L51.8997 116H50.8637ZM69.4021 116L71.9221 101.692H72.9301L70.4381 116H69.4021ZM72.9581 98.556C72.7621 98.556 72.5988 98.4907 72.4681 98.36C72.3468 98.2293 72.2861 98.0613 72.2861 97.856C72.2861 97.576 72.3795 97.3427 72.5661 97.156C72.7528 96.9693 72.9768 96.876 73.2381 96.876C73.4341 96.876 73.5928 96.9413 73.7141 97.072C73.8448 97.2027 73.9101 97.38 73.9101 97.604C73.9101 97.8653 73.8215 98.0893 73.6441 98.276C73.4668 98.4627 73.2381 98.556 72.9581 98.556ZM75.7172 116L79.1892 96.288L80.2812 95.784L76.7532 116H75.7172ZM81.8963 116L85.3683 96.288L86.4603 95.784L84.2763 108.272L91.3043 101.692H92.5643L88.3923 105.612L91.7803 116H90.7163L87.5803 106.368L84.0523 109.672L82.9323 116H81.8963ZM98.1404 116.336C96.9831 116.336 96.0684 115.981 95.3964 115.272C94.7244 114.563 94.3884 113.592 94.3884 112.36C94.3884 111.352 94.6311 110.456 95.1164 109.672C95.6018 108.879 96.2644 108.258 97.1044 107.81C97.9538 107.353 98.9151 107.124 99.9884 107.124C100.735 107.124 101.426 107.245 102.06 107.488C102.695 107.721 103.311 108.085 103.908 108.58L104.244 106.76C104.543 105.192 104.492 104.053 104.09 103.344C103.689 102.635 102.9 102.28 101.724 102.28C101.099 102.28 100.399 102.401 99.6244 102.644C98.8591 102.887 98.0564 103.241 97.2164 103.708L97.0204 102.812C97.9444 102.308 98.7938 101.939 99.5684 101.706C100.343 101.473 101.071 101.356 101.752 101.356C102.742 101.356 103.53 101.552 104.118 101.944C104.706 102.327 105.094 102.901 105.28 103.666C105.476 104.431 105.476 105.388 105.28 106.536L103.628 116H102.62L102.984 113.9C102.256 114.693 101.482 115.3 100.66 115.72C99.8484 116.131 99.0084 116.336 98.1404 116.336ZM98.1964 115.412C99.0551 115.412 99.8951 115.179 100.716 114.712C101.538 114.245 102.368 113.536 103.208 112.584L103.768 109.476C103.171 109.009 102.546 108.659 101.892 108.426C101.248 108.193 100.595 108.076 99.9324 108.076C99.0924 108.076 98.3411 108.267 97.6784 108.65C97.0158 109.023 96.4931 109.532 96.1104 110.176C95.7278 110.82 95.5364 111.548 95.5364 112.36C95.5364 113.293 95.7744 114.035 96.2504 114.586C96.7358 115.137 97.3844 115.412 98.1964 115.412ZM108.693 116L111.213 101.692H112.193L111.745 104.268C112.221 103.372 112.865 102.663 113.677 102.14C114.489 101.617 115.357 101.356 116.281 101.356C117.27 101.356 118.064 101.585 118.661 102.042C119.268 102.499 119.669 103.171 119.865 104.058C120.07 104.945 120.061 106.032 119.837 107.32L118.297 116H117.289L118.801 107.348C119.1 105.621 119.03 104.352 118.591 103.54C118.152 102.719 117.317 102.308 116.085 102.308C114.797 102.308 113.728 102.77 112.879 103.694C112.03 104.618 111.456 105.948 111.157 107.684L109.729 116H108.693ZM126.546 116.336C125.613 116.336 124.978 116.042 124.642 115.454C124.306 114.857 124.25 113.928 124.474 112.668L126.238 102.616H123.886L124.054 101.692H126.406L127.358 96.288L128.45 95.784L127.414 101.692H130.97L130.802 102.616H127.246L125.482 112.78C125.314 113.732 125.323 114.399 125.51 114.782C125.697 115.165 126.098 115.356 126.714 115.356C127.041 115.356 127.391 115.295 127.764 115.174C128.137 115.053 128.506 114.889 128.87 114.684L128.562 115.748C127.89 116.14 127.218 116.336 126.546 116.336ZM132.099 116L135.571 96.288L136.663 95.784L135.179 104.268C135.646 103.381 136.285 102.677 137.097 102.154C137.919 101.622 138.782 101.356 139.687 101.356C140.686 101.356 141.489 101.58 142.095 102.028C142.702 102.476 143.103 103.139 143.299 104.016C143.495 104.893 143.477 105.976 143.243 107.264L141.703 116H140.695L142.235 107.152C142.515 105.528 142.431 104.315 141.983 103.512C141.535 102.709 140.723 102.308 139.547 102.308C138.278 102.308 137.205 102.789 136.327 103.75C135.45 104.711 134.862 106.041 134.563 107.74L133.135 116H132.099ZM161.135 116.336L157.663 101.356C157.579 101.02 157.5 100.684 157.425 100.348C157.351 100.012 157.271 99.648 157.187 99.256C157.15 99.536 157.094 99.8813 157.019 100.292C156.945 100.693 156.879 101.048 156.823 101.356L154.247 116H153.211L156.655 96.4H157.579L160.995 111.296C161.079 111.66 161.168 112.052 161.261 112.472C161.355 112.883 161.443 113.293 161.527 113.704C161.751 113.284 161.98 112.873 162.213 112.472C162.447 112.061 162.675 111.669 162.899 111.296L171.523 96.4H172.503L169.059 116H168.023L170.599 101.356C170.655 101.02 170.711 100.684 170.767 100.348C170.833 100.003 170.898 99.6573 170.963 99.312C170.767 99.6573 170.571 100.003 170.375 100.348C170.179 100.684 169.983 101.02 169.787 101.356L161.135 116.336ZM179.376 116.336C178.396 116.336 177.57 116.117 176.898 115.678C176.235 115.23 175.731 114.586 175.386 113.746C175.04 112.897 174.868 111.865 174.868 110.652C174.868 109.233 175.045 107.955 175.4 106.816C175.764 105.677 176.263 104.702 176.898 103.89C177.532 103.069 178.27 102.443 179.11 102.014C179.95 101.575 180.85 101.356 181.812 101.356C182.614 101.356 183.338 101.519 183.982 101.846C184.635 102.173 185.148 102.691 185.522 103.4C185.904 104.109 186.096 105.043 186.096 106.2C186.096 106.573 186.063 106.993 185.998 107.46C185.942 107.917 185.844 108.477 185.704 109.14H176.044C175.904 110.363 175.918 111.441 176.086 112.374C176.263 113.298 176.636 114.021 177.206 114.544C177.775 115.067 178.582 115.328 179.628 115.328C180.16 115.328 180.72 115.225 181.308 115.02C181.896 114.805 182.474 114.488 183.044 114.068L183.576 114.852C183.006 115.281 182.376 115.636 181.686 115.916C181.004 116.196 180.234 116.336 179.376 116.336ZM176.184 108.216H184.836C185.004 107.143 185.036 106.158 184.934 105.262C184.831 104.357 184.537 103.633 184.052 103.092C183.566 102.551 182.829 102.28 181.84 102.28C180.729 102.28 179.786 102.565 179.012 103.134C178.246 103.694 177.63 104.427 177.164 105.332C176.706 106.237 176.38 107.199 176.184 108.216ZM193.785 116.336C192.404 116.336 191.321 115.809 190.537 114.754C189.753 113.69 189.361 112.22 189.361 110.344C189.361 108.571 189.65 107.012 190.229 105.668C190.808 104.315 191.61 103.26 192.637 102.504C193.673 101.739 194.868 101.356 196.221 101.356C197.061 101.356 197.817 101.585 198.489 102.042C199.161 102.49 199.637 103.092 199.917 103.848L201.261 96.288L202.353 95.784L198.825 116H197.789L198.153 113.956C197.472 114.74 196.762 115.333 196.025 115.734C195.288 116.135 194.541 116.336 193.785 116.336ZM193.785 115.328C194.625 115.328 195.451 115.067 196.263 114.544C197.084 114.021 197.808 113.293 198.433 112.36L199.665 105.248C199.357 104.352 198.89 103.647 198.265 103.134C197.649 102.621 196.949 102.364 196.165 102.364C195.026 102.364 194.028 102.7 193.169 103.372C192.31 104.035 191.643 104.968 191.167 106.172C190.691 107.367 190.453 108.757 190.453 110.344C190.453 111.865 190.752 113.079 191.349 113.984C191.956 114.88 192.768 115.328 193.785 115.328ZM204.07 116L206.59 101.692H207.598L205.106 116H204.07ZM207.626 98.556C207.43 98.556 207.267 98.4907 207.136 98.36C207.015 98.2293 206.954 98.0613 206.954 97.856C206.954 97.576 207.047 97.3427 207.234 97.156C207.421 96.9693 207.645 96.876 207.906 96.876C208.102 96.876 208.261 96.9413 208.382 97.072C208.513 97.2027 208.578 97.38 208.578 97.604C208.578 97.8653 208.489 98.0893 208.312 98.276C208.135 98.4627 207.906 98.556 207.626 98.556ZM214.837 116.336C213.465 116.336 212.392 115.841 211.617 114.852C210.852 113.863 210.469 112.481 210.469 110.708C210.469 108.907 210.745 107.301 211.295 105.892C211.855 104.483 212.621 103.377 213.591 102.574C214.571 101.762 215.687 101.356 216.937 101.356C217.945 101.356 218.795 101.641 219.485 102.21C220.185 102.77 220.577 103.493 220.661 104.38L219.709 104.744C219.588 103.988 219.28 103.405 218.785 102.994C218.291 102.574 217.665 102.364 216.909 102.364C215.873 102.364 214.954 102.723 214.151 103.442C213.349 104.161 212.714 105.15 212.247 106.41C211.79 107.661 211.561 109.093 211.561 110.708C211.561 112.192 211.846 113.335 212.415 114.138C212.985 114.931 213.792 115.328 214.837 115.328C215.612 115.328 216.317 115.095 216.951 114.628C217.595 114.161 218.104 113.508 218.477 112.668L219.429 113.06C218.925 114.124 218.277 114.936 217.483 115.496C216.699 116.056 215.817 116.336 214.837 116.336ZM226.355 116.336C225.198 116.336 224.283 115.981 223.611 115.272C222.939 114.563 222.603 113.592 222.603 112.36C222.603 111.352 222.846 110.456 223.331 109.672C223.817 108.879 224.479 108.258 225.319 107.81C226.169 107.353 227.13 107.124 228.203 107.124C228.95 107.124 229.641 107.245 230.275 107.488C230.91 107.721 231.526 108.085 232.123 108.58L232.459 106.76C232.758 105.192 232.707 104.053 232.305 103.344C231.904 102.635 231.115 102.28 229.939 102.28C229.314 102.28 228.614 102.401 227.839 102.644C227.074 102.887 226.271 103.241 225.431 103.708L225.235 102.812C226.159 102.308 227.009 101.939 227.783 101.706C228.558 101.473 229.286 101.356 229.967 101.356C230.957 101.356 231.745 101.552 232.333 101.944C232.921 102.327 233.309 102.901 233.495 103.666C233.691 104.431 233.691 105.388 233.495 106.536L231.843 116H230.835L231.199 113.9C230.471 114.693 229.697 115.3 228.875 115.72C228.063 116.131 227.223 116.336 226.355 116.336ZM226.411 115.412C227.27 115.412 228.11 115.179 228.931 114.712C229.753 114.245 230.583 113.536 231.423 112.584L231.983 109.476C231.386 109.009 230.761 108.659 230.107 108.426C229.463 108.193 228.81 108.076 228.147 108.076C227.307 108.076 226.556 108.267 225.893 108.65C225.231 109.023 224.708 109.532 224.325 110.176C223.943 110.82 223.751 111.548 223.751 112.36C223.751 113.293 223.989 114.035 224.465 114.586C224.951 115.137 225.599 115.412 226.411 115.412ZM236.717 116L240.189 96.288L241.281 95.784L237.753 116H236.717Z" fill="black"/>
<path d="M50.8637 116L49.8788 115.827L49.6727 117H50.8637V116ZM54.3077 96.4V95.4H53.4681L53.3228 96.2269L54.3077 96.4ZM55.2877 96.4L56.2075 96.0076L55.9483 95.4H55.2877V96.4ZM61.5597 111.1L60.64 111.492L60.644 111.502L60.6481 111.511L61.5597 111.1ZM62.2037 112.598L61.2787 112.978L61.2828 112.988L61.2872 112.998L62.2037 112.598ZM62.8477 114.124L61.9216 114.501L63.2537 117.771L63.8341 114.288L62.8477 114.124ZM63.1137 112.57L64.0987 112.743L63.1137 112.57ZM63.3797 111.1L64.3627 111.284L64.3647 111.273L63.3797 111.1ZM65.9557 96.4V95.4H65.1157L64.9707 96.2274L65.9557 96.4ZM66.9917 96.4L67.9766 96.5731L68.1828 95.4H66.9917V96.4ZM63.5477 116V117H64.3873L64.5326 116.173L63.5477 116ZM62.5677 116L61.6485 116.394L61.9082 117H62.5677V116ZM56.2957 101.356L57.215 100.962L57.2107 100.952L56.2957 101.356ZM55.8617 100.376L54.935 100.752L54.9412 100.767L54.9479 100.782L55.8617 100.376ZM55.4277 99.34L54.4976 99.7072L54.5035 99.7221L54.5099 99.7369L55.4277 99.34ZM55.0077 98.276L55.9379 97.9088L54.6027 94.5264L54.0206 98.1159L55.0077 98.276ZM54.8257 99.326L53.8423 99.1448L53.84 99.1574L53.838 99.17L54.8257 99.326ZM54.6437 100.376L53.6612 100.19L53.6587 100.203L53.6566 100.216L54.6437 100.376ZM54.4757 101.356L53.4918 101.177L53.4909 101.183L54.4757 101.356ZM51.8997 116V117H52.7392L52.8846 116.173L51.8997 116ZM51.8486 116.173L55.2926 96.5731L53.3228 96.2269L49.8788 115.827L51.8486 116.173ZM54.3077 97.4H55.2877V95.4H54.3077V97.4ZM54.368 96.7924L60.64 111.492L62.4795 110.708L56.2075 96.0076L54.368 96.7924ZM60.6481 111.511C60.8578 111.976 61.068 112.465 61.2787 112.978L63.1288 112.218C62.9101 111.686 62.691 111.176 62.4713 110.689L60.6481 111.511ZM61.2872 112.998C61.508 113.504 61.7195 114.005 61.9216 114.501L63.7738 113.747C63.5653 113.235 63.3475 112.719 63.1203 112.198L61.2872 112.998ZM63.8341 114.288C63.9176 113.787 64.0058 113.272 64.0987 112.743L62.1288 112.397C62.035 112.932 61.9458 113.453 61.8613 113.96L63.8341 114.288ZM64.0987 112.743C64.1915 112.214 64.2794 111.728 64.3626 111.284L62.3969 110.916C62.312 111.368 62.2227 111.862 62.1288 112.397L64.0987 112.743ZM64.3647 111.273L66.9407 96.5726L64.9707 96.2274L62.3947 110.927L64.3647 111.273ZM65.9557 97.4H66.9917V95.4H65.9557V97.4ZM66.0068 96.2269L62.5628 115.827L64.5326 116.173L67.9766 96.5731L66.0068 96.2269ZM63.5477 115H62.5677V117H63.5477V115ZM63.487 115.606L57.215 100.962L55.3765 101.75L61.6485 116.394L63.487 115.606ZM57.2107 100.952C57.0703 100.634 56.9252 100.307 56.7755 99.9699L54.9479 100.782C55.0969 101.117 55.2412 101.443 55.3808 101.76L57.2107 100.952ZM56.7885 100C56.6456 99.6478 56.4979 99.2954 56.3456 98.9431L54.5099 99.7369C54.6562 100.075 54.7979 100.414 54.935 100.752L56.7885 100ZM56.3579 98.9728C56.3361 98.9177 56.2746 98.7619 56.2529 98.7068C56.2311 98.6517 56.1696 98.4959 56.1479 98.4408C56.1366 98.4123 56.1329 98.4029 56.1216 98.3743C56.1104 98.3458 56.1067 98.3364 56.0954 98.3078C56.0841 98.2793 56.0804 98.2699 56.0691 98.2413C56.0579 98.2128 56.0542 98.2034 56.0429 98.1748C56.0316 98.1463 56.0279 98.1369 56.0166 98.1083C56.0054 98.0798 56.0017 98.0704 55.9904 98.0418C55.9791 98.0133 55.9754 98.0039 55.9641 97.9753C55.9529 97.9468 55.9492 97.9374 55.9379 97.9088L54.0776 98.6432C54.0993 98.6983 54.1608 98.8541 54.1826 98.9092C54.2043 98.9643 54.2658 99.1201 54.2876 99.1752C54.2989 99.2037 54.3025 99.2131 54.3138 99.2417C54.3251 99.2702 54.3288 99.2796 54.3401 99.3082C54.3514 99.3367 54.355 99.3461 54.3663 99.3747C54.3776 99.4032 54.3813 99.4126 54.3926 99.4412C54.4039 99.4697 54.4076 99.4791 54.4188 99.5077C54.4301 99.5362 54.4338 99.5456 54.4451 99.5742C54.4564 99.6027 54.46 99.6121 54.4713 99.6407C54.4826 99.6692 54.4863 99.6786 54.4976 99.7072L56.3579 98.9728ZM54.0206 98.1159C53.9658 98.454 53.9064 98.797 53.8423 99.1448L55.8092 99.5072C55.8758 99.1457 55.9377 98.7887 55.9948 98.4361L54.0206 98.1159ZM53.838 99.17C53.7835 99.5149 53.7246 99.8549 53.6612 100.19L55.6263 100.562C55.6936 100.206 55.756 99.8464 55.8135 99.482L53.838 99.17ZM53.6566 100.216C53.6015 100.556 53.5466 100.876 53.4919 101.177L55.4596 101.535C55.5169 101.22 55.5739 100.887 55.6308 100.536L53.6566 100.216ZM53.4909 101.183L50.9149 115.827L52.8846 116.173L55.4606 101.529L53.4909 101.183ZM51.8997 115H50.8637V117H51.8997V115ZM69.4021 116L68.4173 115.827L68.2106 117H69.4021V116ZM71.9221 101.692V100.692H71.0829L70.9373 101.519L71.9221 101.692ZM72.9301 101.692L73.9153 101.864L74.1194 100.692H72.9301V101.692ZM70.4381 116V117H71.279L71.4233 116.172L70.4381 116ZM72.4681 98.36L71.7354 99.0405L71.7479 99.054L71.761 99.0671L72.4681 98.36ZM72.5661 97.156L73.2732 97.8631V97.8631L72.5661 97.156ZM73.7141 97.072L72.9813 97.7525L72.9939 97.766L73.007 97.7791L73.7141 97.072ZM70.387 116.173L72.907 101.865L70.9373 101.519L68.4173 115.827L70.387 116.173ZM71.9221 102.692H72.9301V100.692H71.9221V102.692ZM71.945 101.52L69.453 115.828L71.4233 116.172L73.9153 101.864L71.945 101.52ZM70.4381 115H69.4021V117H70.4381V115ZM72.9581 97.556C72.9729 97.556 73.0108 97.5588 73.06 97.5785C73.1104 97.5987 73.1497 97.6274 73.1752 97.6529L71.761 99.0671C72.0915 99.3976 72.5148 99.556 72.9581 99.556V97.556ZM73.2009 97.6795C73.2319 97.7129 73.257 97.7542 73.2722 97.7964C73.2866 97.8362 73.2861 97.8599 73.2861 97.856H71.2861C71.2861 98.2727 71.4163 98.6968 71.7354 99.0405L73.2009 97.6795ZM73.2861 97.856C73.2861 97.8416 73.2873 97.8347 73.2875 97.8336C73.2877 97.8328 73.2871 97.8363 73.2846 97.8424C73.2821 97.8486 73.2789 97.8546 73.2757 97.8594C73.2725 97.8642 73.271 97.8653 73.2732 97.8631L71.859 96.4489C71.4726 96.8354 71.2861 97.3286 71.2861 97.856H73.2861ZM73.2732 97.8631C73.2785 97.8578 73.2798 97.8575 73.2765 97.8597C73.273 97.8621 73.267 97.8657 73.2588 97.8691C73.2505 97.8725 73.2432 97.8745 73.238 97.8755C73.233 97.8765 73.2326 97.876 73.2381 97.876V95.876C72.7086 95.876 72.2311 96.0768 71.859 96.4489L73.2732 97.8631ZM73.2381 97.876C73.224 97.876 73.1808 97.8733 73.1234 97.8497C73.0638 97.8252 73.0151 97.7888 72.9813 97.7525L74.4469 96.3915C74.1165 96.0357 73.6815 95.876 73.2381 95.876V97.876ZM73.007 97.7791C72.9677 97.7398 72.939 97.6926 72.9228 97.6487C72.9079 97.6083 72.9101 97.5886 72.9101 97.604H74.9101C74.9101 97.1748 74.778 96.7217 74.4212 96.3649L73.007 97.7791ZM72.9101 97.604C72.9101 97.6126 72.9094 97.6153 72.9098 97.6133C72.9102 97.6111 72.9113 97.6063 72.9138 97.6C72.9163 97.5936 72.9191 97.5886 72.9212 97.5854C72.9232 97.5823 72.9232 97.583 72.9191 97.5872L74.3691 98.9647C74.726 98.5892 74.9101 98.1174 74.9101 97.604H72.9101ZM72.9191 97.5872C72.9203 97.586 72.9252 97.5812 72.9338 97.5753C72.9425 97.5693 72.9522 97.564 72.9617 97.5602C72.9711 97.5563 72.9772 97.5551 72.978 97.5549C72.9787 97.5548 72.9725 97.556 72.9581 97.556V99.556C73.4856 99.556 73.9854 99.3687 74.3691 98.9647L72.9191 97.5872ZM75.7172 116L74.7324 115.827L74.5257 117H75.7172V116ZM79.1892 96.288L78.7702 95.38L78.2952 95.5993L78.2044 96.1145L79.1892 96.288ZM80.2812 95.784L81.2663 95.9559L81.5943 94.0766L79.8622 94.876L80.2812 95.784ZM76.7532 116V117H77.5938L77.7383 116.172L76.7532 116ZM76.7021 116.173L80.1741 96.4615L78.2044 96.1145L74.7324 115.827L76.7021 116.173ZM79.6083 97.196L80.7003 96.692L79.8622 94.876L78.7702 95.38L79.6083 97.196ZM79.2961 95.6121L75.7681 115.828L77.7383 116.172L81.2663 95.9559L79.2961 95.6121ZM76.7532 115H75.7172V117H76.7532V115ZM81.8963 116L80.9114 115.827L80.7047 117H81.8963V116ZM85.3683 96.288L84.9492 95.38L84.4742 95.5993L84.3834 96.1145L85.3683 96.288ZM86.4603 95.784L87.4453 95.9563L87.7741 94.0762L86.0412 94.876L86.4603 95.784ZM84.2763 108.272L83.2912 108.1L82.7758 111.047L84.9597 109.002L84.2763 108.272ZM91.3043 101.692V100.692H90.9092L90.6208 100.962L91.3043 101.692ZM92.5643 101.692L93.249 102.421L95.0889 100.692H92.5643V101.692ZM88.3923 105.612L87.7075 104.883L87.2446 105.318L87.4416 105.922L88.3923 105.612ZM91.7803 116V117H93.1583L92.731 115.69L91.7803 116ZM90.7163 116L89.7654 116.31L89.9902 117H90.7163V116ZM87.5803 106.368L88.5311 106.058L88.0444 104.563L86.8967 105.638L87.5803 106.368ZM84.0523 109.672L83.3687 108.942L83.1256 109.17L83.0676 109.498L84.0523 109.672ZM82.9323 116V117H83.7708L83.917 116.174L82.9323 116ZM82.8811 116.173L86.3531 96.4615L84.3834 96.1145L80.9114 115.827L82.8811 116.173ZM85.7873 97.196L86.8793 96.692L86.0412 94.876L84.9492 95.38L85.7873 97.196ZM85.4752 95.6117L83.2912 108.1L85.2613 108.444L87.4453 95.9563L85.4752 95.6117ZM84.9597 109.002L91.9877 102.422L90.6208 100.962L83.5928 107.542L84.9597 109.002ZM91.3043 102.692H92.5643V100.692H91.3043V102.692ZM91.8795 100.963L87.7075 104.883L89.077 106.341L93.249 102.421L91.8795 100.963ZM87.4416 105.922L90.8296 116.31L92.731 115.69L89.343 105.302L87.4416 105.922ZM91.7803 115H90.7163V117H91.7803V115ZM91.6671 115.69L88.5311 106.058L86.6294 106.678L89.7654 116.31L91.6671 115.69ZM86.8967 105.638L83.3687 108.942L84.7358 110.402L88.2638 107.098L86.8967 105.638ZM83.0676 109.498L81.9476 115.826L83.917 116.174L85.037 109.846L83.0676 109.498ZM82.9323 115H81.8963V117H82.9323V115ZM95.3964 115.272L94.6705 115.96L95.3964 115.272ZM95.1164 109.672L95.9667 110.198L95.9695 110.194L95.1164 109.672ZM97.1044 107.81L97.575 108.692L97.5785 108.69L97.1044 107.81ZM102.06 107.488L101.703 108.422L101.715 108.427L102.06 107.488ZM103.908 108.58L103.271 109.35L104.583 110.437L104.892 108.762L103.908 108.58ZM104.244 106.76L103.262 106.573L103.261 106.578L104.244 106.76ZM104.09 103.344L104.961 102.852L104.09 103.344ZM99.6244 102.644L99.3255 101.69L99.3222 101.691L99.6244 102.644ZM97.2164 103.708L96.2395 103.922L96.5268 105.235L97.7021 104.582L97.2164 103.708ZM97.0204 102.812L96.5416 101.934L95.8833 102.293L96.0435 103.026L97.0204 102.812ZM99.5684 101.706L99.8568 102.664L99.5684 101.706ZM104.118 101.944L103.564 102.776L103.573 102.782L104.118 101.944ZM105.28 103.666L104.309 103.903L104.312 103.914L105.28 103.666ZM105.28 106.536L106.266 106.708L106.266 106.704L105.28 106.536ZM103.628 116V117H104.469L104.614 116.172L103.628 116ZM102.62 116L101.635 115.829L101.432 117H102.62V116ZM102.984 113.9L103.97 114.071L104.552 110.713L102.248 113.224L102.984 113.9ZM100.66 115.72L101.112 116.612L101.116 116.61L100.66 115.72ZM100.716 114.712L100.222 113.843L100.716 114.712ZM103.208 112.584L103.958 113.246L104.143 113.036L104.193 112.761L103.208 112.584ZM103.768 109.476L104.753 109.653L104.86 109.059L104.384 108.688L103.768 109.476ZM101.892 108.426L101.552 109.366L101.556 109.368L101.892 108.426ZM97.6784 108.65L98.1693 109.521L98.1785 109.516L97.6784 108.65ZM96.1104 110.176L95.2507 109.665L96.1104 110.176ZM96.2504 114.586L95.4939 115.24L95.5002 115.247L96.2504 114.586ZM98.1404 115.336C97.2028 115.336 96.5708 115.058 96.1224 114.584L94.6705 115.96C95.566 116.905 96.7634 117.336 98.1404 117.336V115.336ZM96.1224 114.584C95.6691 114.106 95.3884 113.406 95.3884 112.36H93.3884C93.3884 113.778 93.7798 115.02 94.6705 115.96L96.1224 114.584ZM95.3884 112.36C95.3884 111.52 95.5883 110.81 95.9667 110.198L94.2662 109.146C93.6739 110.102 93.3884 111.184 93.3884 112.36H95.3884ZM95.9695 110.194C96.3595 109.556 96.8885 109.059 97.575 108.692L96.6338 106.928C95.6404 107.457 94.8441 108.201 94.2634 109.15L95.9695 110.194ZM97.5785 108.69C98.2663 108.32 99.0616 108.124 99.9884 108.124V106.124C98.7686 106.124 97.6412 106.385 96.6303 106.93L97.5785 108.69ZM99.9884 108.124C100.625 108.124 101.193 108.227 101.703 108.422L102.418 106.554C101.658 106.264 100.845 106.124 99.9884 106.124V108.124ZM101.715 108.427C102.229 108.615 102.748 108.917 103.271 109.35L104.546 107.81C103.874 107.253 103.161 106.827 102.405 106.549L101.715 108.427ZM104.892 108.762L105.228 106.942L103.261 106.578L102.925 108.398L104.892 108.762ZM105.227 106.947C105.533 105.338 105.548 103.889 104.961 102.852L103.22 103.836C103.436 104.217 103.553 105.046 103.262 106.573L105.227 106.947ZM104.961 102.852C104.309 101.7 103.084 101.28 101.724 101.28V103.28C102.717 103.28 103.069 103.569 103.22 103.836L104.961 102.852ZM101.724 101.28C100.973 101.28 100.17 101.425 99.3255 101.69L99.9233 103.598C100.628 103.377 101.226 103.28 101.724 103.28V101.28ZM99.3222 101.691C98.4823 101.957 97.6181 102.341 96.7308 102.834L97.7021 104.582C98.4947 104.142 99.2359 103.816 99.9267 103.597L99.3222 101.691ZM98.1933 103.494L97.9973 102.598L96.0435 103.026L96.2395 103.922L98.1933 103.494ZM97.4993 103.69C98.3797 103.21 99.1645 102.872 99.8568 102.664L99.28 100.748C98.423 101.007 97.5091 101.406 96.5416 101.934L97.4993 103.69ZM99.8568 102.664C100.555 102.453 101.185 102.356 101.752 102.356V100.356C100.957 100.356 100.131 100.492 99.28 100.748L99.8568 102.664ZM101.752 102.356C102.62 102.356 103.194 102.529 103.564 102.776L104.673 101.112C103.867 100.575 102.863 100.356 101.752 100.356V102.356ZM103.573 102.782C103.921 103.009 104.175 103.352 104.309 103.903L106.252 103.429C106.013 102.449 105.492 101.645 104.664 101.106L103.573 102.782ZM104.312 103.914C104.46 104.495 104.477 105.298 104.295 106.368L106.266 106.704C106.476 105.478 106.492 104.368 106.249 103.418L104.312 103.914ZM104.295 106.364L102.643 115.828L104.614 116.172L106.266 106.708L104.295 106.364ZM103.628 115H102.62V117H103.628V115ZM103.606 116.171L103.97 114.071L101.999 113.729L101.635 115.829L103.606 116.171ZM102.248 113.224C101.587 113.944 100.905 114.472 100.205 114.83L101.116 116.61C102.059 116.128 102.926 115.443 103.721 114.576L102.248 113.224ZM100.209 114.828C99.5301 115.171 98.844 115.336 98.1404 115.336V117.336C99.1728 117.336 100.167 117.09 101.112 116.612L100.209 114.828ZM98.1964 116.412C99.2452 116.412 100.254 116.125 101.21 115.581L100.222 113.843C99.5362 114.232 98.8649 114.412 98.1964 114.412V116.412ZM101.21 115.581C102.155 115.045 103.069 114.254 103.958 113.246L102.459 111.922C101.668 112.818 100.921 113.446 100.222 113.843L101.21 115.581ZM104.193 112.761L104.753 109.653L102.784 109.299L102.224 112.407L104.193 112.761ZM104.384 108.688C103.71 108.162 102.992 107.757 102.229 107.484L101.556 109.368C102.1 109.562 102.632 109.857 103.153 110.264L104.384 108.688ZM102.233 107.486C101.484 107.214 100.715 107.076 99.9324 107.076V109.076C100.475 109.076 101.013 109.171 101.552 109.366L102.233 107.486ZM99.9324 107.076C98.9345 107.076 98.0076 107.305 97.1783 107.784L98.1785 109.516C98.6746 109.23 99.2504 109.076 99.9324 109.076V107.076ZM97.1876 107.779C96.375 108.237 95.7242 108.868 95.2507 109.665L96.9701 110.687C97.262 110.196 97.6565 109.81 98.1693 109.521L97.1876 107.779ZM95.2507 109.665C94.7686 110.477 94.5364 111.384 94.5364 112.36H96.5364C96.5364 111.712 96.6869 111.163 96.9701 110.687L95.2507 109.665ZM94.5364 112.36C94.5364 113.464 94.8207 114.461 95.4939 115.24L97.007 113.932C96.7281 113.61 96.5364 113.123 96.5364 112.36H94.5364ZM95.5002 115.247C96.1969 116.038 97.1315 116.412 98.1964 116.412V114.412C97.6374 114.412 97.2747 114.236 97.0006 113.925L95.5002 115.247ZM108.693 116L107.708 115.827L107.502 117H108.693V116ZM111.213 101.692V100.692H110.374L110.228 101.519L111.213 101.692ZM112.193 101.692L113.178 101.863L113.382 100.692H112.193V101.692ZM111.745 104.268L110.76 104.097L112.628 104.737L111.745 104.268ZM113.677 102.14L113.136 101.299V101.299L113.677 102.14ZM118.661 102.042L118.053 102.836L118.059 102.841L118.661 102.042ZM119.865 104.058L118.889 104.274L118.891 104.284L119.865 104.058ZM119.837 107.32L120.822 107.495L120.822 107.491L119.837 107.32ZM118.297 116V117H119.135L119.282 116.175L118.297 116ZM117.289 116L116.304 115.828L116.099 117H117.289V116ZM118.801 107.348L119.786 107.52L119.787 107.518L118.801 107.348ZM118.591 103.54L117.709 104.011L117.711 104.015L118.591 103.54ZM112.879 103.694L112.143 103.017V103.017L112.879 103.694ZM111.157 107.684L110.172 107.514L110.172 107.515L111.157 107.684ZM109.729 116V117H110.572L110.715 116.169L109.729 116ZM109.678 116.173L112.198 101.865L110.228 101.519L107.708 115.827L109.678 116.173ZM111.213 102.692H112.193V100.692H111.213V102.692ZM111.208 101.521L110.76 104.097L112.73 104.439L113.178 101.863L111.208 101.521ZM112.628 104.737C113.028 103.984 113.558 103.406 114.218 102.981L113.136 101.299C112.173 101.919 111.414 102.76 110.862 103.799L112.628 104.737ZM114.218 102.981C114.877 102.557 115.558 102.356 116.281 102.356V100.356C115.156 100.356 114.102 100.678 113.136 101.299L114.218 102.981ZM116.281 102.356C117.12 102.356 117.678 102.549 118.053 102.836L119.269 101.248C118.449 100.62 117.421 100.356 116.281 100.356V102.356ZM118.059 102.841C118.44 103.128 118.734 103.572 118.889 104.274L120.842 103.842C120.605 102.77 120.096 101.871 119.263 101.243L118.059 102.841ZM118.891 104.284C119.056 104.996 119.062 105.939 118.852 107.149L120.822 107.491C121.06 106.125 121.085 104.893 120.839 103.832L118.891 104.284ZM118.853 107.145L117.313 115.825L119.282 116.175L120.822 107.495L118.853 107.145ZM118.297 115H117.289V117H118.297V115ZM118.274 116.172L119.786 107.52L117.816 107.176L116.304 115.828L118.274 116.172ZM119.787 107.518C120.094 105.742 120.077 104.186 119.471 103.065L117.711 104.015C117.983 104.518 118.106 105.501 117.816 107.178L119.787 107.518ZM119.473 103.069C118.804 101.816 117.548 101.308 116.085 101.308V103.308C117.086 103.308 117.501 103.621 117.709 104.011L119.473 103.069ZM116.085 101.308C114.526 101.308 113.187 101.881 112.143 103.017L113.615 104.371C114.27 103.659 115.069 103.308 116.085 103.308V101.308ZM112.143 103.017C111.121 104.129 110.49 105.662 110.172 107.514L112.143 107.854C112.421 106.234 112.939 105.107 113.615 104.371L112.143 103.017ZM110.172 107.515L108.744 115.831L110.715 116.169L112.143 107.853L110.172 107.515ZM109.729 115H108.693V117H109.729V115ZM124.642 115.454L123.77 115.944L123.774 115.95L124.642 115.454ZM124.474 112.668L125.459 112.843L125.459 112.841L124.474 112.668ZM126.238 102.616L127.223 102.789L127.429 101.616H126.238V102.616ZM123.886 102.616L122.902 102.437L122.688 103.616H123.886V102.616ZM124.054 101.692V100.692H123.219L123.07 101.513L124.054 101.692ZM126.406 101.692V102.692H127.245L127.391 101.865L126.406 101.692ZM127.358 96.288L126.939 95.38L126.464 95.5993L126.373 96.1145L127.358 96.288ZM128.45 95.784L129.435 95.9567L129.765 94.0758L128.031 94.876L128.45 95.784ZM127.414 101.692L126.429 101.519L126.223 102.692H127.414V101.692ZM130.97 101.692L131.954 101.871L132.168 100.692H130.97V101.692ZM130.802 102.616V103.616H131.637L131.786 102.795L130.802 102.616ZM127.246 102.616V101.616H126.405L126.261 102.445L127.246 102.616ZM125.482 112.78L126.467 112.954L126.467 112.951L125.482 112.78ZM125.51 114.782L126.409 114.344L125.51 114.782ZM127.764 115.174L128.073 116.125L127.764 115.174ZM128.87 114.684L129.831 114.962L130.511 112.61L128.379 113.813L128.87 114.684ZM128.562 115.748L129.066 116.612L129.411 116.41L129.523 116.026L128.562 115.748ZM126.546 115.336C125.819 115.336 125.603 115.121 125.51 114.958L123.774 115.95C124.352 116.963 125.407 117.336 126.546 117.336V115.336ZM125.514 114.964C125.355 114.681 125.244 114.048 125.459 112.843L123.489 112.493C123.256 113.808 123.257 115.032 123.77 115.944L125.514 114.964ZM125.459 112.841L127.223 102.789L125.253 102.443L123.489 112.495L125.459 112.841ZM126.238 101.616H123.886V103.616H126.238V101.616ZM124.87 102.795L125.038 101.871L123.07 101.513L122.902 102.437L124.87 102.795ZM124.054 102.692H126.406V100.692H124.054V102.692ZM127.391 101.865L128.343 96.4615L126.373 96.1145L125.421 101.519L127.391 101.865ZM127.777 97.196L128.869 96.692L128.031 94.876L126.939 95.38L127.777 97.196ZM127.465 95.6113L126.429 101.519L128.399 101.865L129.435 95.9567L127.465 95.6113ZM127.414 102.692H130.97V100.692H127.414V102.692ZM129.986 101.513L129.818 102.437L131.786 102.795L131.954 101.871L129.986 101.513ZM130.802 101.616H127.246V103.616H130.802V101.616ZM126.261 102.445L124.497 112.609L126.467 112.951L128.231 102.787L126.261 102.445ZM124.497 112.606C124.407 113.119 124.357 113.591 124.363 114.008C124.369 114.414 124.427 114.843 124.611 115.22L126.409 114.344C126.41 114.346 126.398 114.322 126.386 114.258C126.374 114.195 126.365 114.104 126.363 113.981C126.359 113.731 126.389 113.393 126.467 112.954L124.497 112.606ZM124.611 115.22C125.037 116.092 125.91 116.356 126.714 116.356V114.356C126.501 114.356 126.406 114.322 126.381 114.31C126.372 114.305 126.378 114.307 126.389 114.318C126.4 114.329 126.407 114.34 126.409 114.344L124.611 115.22ZM126.714 116.356C127.164 116.356 127.619 116.272 128.073 116.125L127.455 114.223C127.162 114.318 126.917 114.356 126.714 114.356V116.356ZM128.073 116.125C128.514 115.982 128.943 115.791 129.361 115.555L128.379 113.813C128.069 113.988 127.761 114.123 127.455 114.223L128.073 116.125ZM127.909 114.406L127.601 115.47L129.523 116.026L129.831 114.962L127.909 114.406ZM128.058 114.884C127.515 115.201 127.015 115.336 126.546 115.336V117.336C127.421 117.336 128.265 117.079 129.066 116.612L128.058 114.884ZM132.099 116L131.115 115.827L130.908 117H132.099V116ZM135.571 96.288L135.152 95.38L134.677 95.5993L134.587 96.1145L135.571 96.288ZM136.663 95.784L137.648 95.9563L137.977 94.0762L136.244 94.876L136.663 95.784ZM135.179 104.268L134.194 104.096L136.064 104.734L135.179 104.268ZM137.097 102.154L137.639 102.995L137.641 102.993L137.097 102.154ZM142.095 102.028L141.501 102.832L142.095 102.028ZM143.299 104.016L142.323 104.234L143.299 104.016ZM143.243 107.264L142.259 107.086L142.259 107.09L143.243 107.264ZM141.703 116V117H142.543L142.688 116.174L141.703 116ZM140.695 116L139.71 115.829L139.506 117H140.695V116ZM142.235 107.152L143.221 107.323L143.221 107.322L142.235 107.152ZM141.983 103.512L141.11 103.999L141.983 103.512ZM136.327 103.75L135.589 103.076L136.327 103.75ZM134.563 107.74L133.578 107.567L133.578 107.57L134.563 107.74ZM133.135 116V117H133.977L134.121 116.17L133.135 116ZM133.084 116.173L136.556 96.4615L134.587 96.1145L131.115 115.827L133.084 116.173ZM135.99 97.196L137.082 96.692L136.244 94.876L135.152 95.38L135.99 97.196ZM135.678 95.6117L134.194 104.096L136.164 104.44L137.648 95.9563L135.678 95.6117ZM136.064 104.734C136.454 103.994 136.977 103.421 137.639 102.995L136.556 101.313C135.594 101.933 134.838 102.769 134.294 103.802L136.064 104.734ZM137.641 102.993C138.314 102.557 138.991 102.356 139.687 102.356V100.356C138.573 100.356 137.523 100.687 136.554 101.315L137.641 102.993ZM139.687 102.356C140.541 102.356 141.115 102.547 141.501 102.832L142.689 101.224C141.863 100.613 140.831 100.356 139.687 100.356V102.356ZM141.501 102.832C141.878 103.111 142.169 103.544 142.323 104.234L144.275 103.798C144.037 102.733 143.526 101.841 142.689 101.224L141.501 102.832ZM142.323 104.234C142.48 104.936 142.479 105.874 142.259 107.086L144.227 107.442C144.475 106.078 144.511 104.851 144.275 103.798L142.323 104.234ZM142.259 107.09L140.719 115.826L142.688 116.174L144.228 107.438L142.259 107.09ZM141.703 115H140.695V117H141.703V115ZM141.681 116.171L143.221 107.323L141.25 106.981L139.71 115.829L141.681 116.171ZM143.221 107.322C143.512 105.631 143.475 104.133 142.857 103.025L141.11 103.999C141.388 104.496 141.518 105.425 141.25 106.982L143.221 107.322ZM142.857 103.025C142.181 101.815 140.968 101.308 139.547 101.308V103.308C140.479 103.308 140.89 103.604 141.11 103.999L142.857 103.025ZM139.547 101.308C137.989 101.308 136.65 101.913 135.589 103.076L137.066 104.424C137.759 103.664 138.567 103.308 139.547 103.308V101.308ZM135.589 103.076C134.548 104.216 133.9 105.741 133.578 107.567L135.548 107.913C135.825 106.342 136.352 105.206 137.066 104.424L135.589 103.076ZM133.578 107.57L132.15 115.83L134.121 116.17L135.549 107.91L133.578 107.57ZM133.135 115H132.099V117H133.135V115ZM161.135 116.336L160.161 116.562L160.734 119.031L162.001 116.836L161.135 116.336ZM157.663 101.356L158.638 101.13L158.636 101.122L158.634 101.113L157.663 101.356ZM157.425 100.348L158.402 100.131L157.425 100.348ZM157.187 99.256L158.165 99.0465L156.196 99.1238L157.187 99.256ZM157.019 100.292L158.003 100.475L158.003 100.471L157.019 100.292ZM156.823 101.356L155.84 101.177L155.839 101.183L156.823 101.356ZM154.247 116V117H155.087L155.232 116.173L154.247 116ZM153.211 116L152.226 115.827L152.02 117H153.211V116ZM156.655 96.4V95.4H155.816L155.67 96.2269L156.655 96.4ZM157.579 96.4L158.554 96.1765L158.376 95.4H157.579V96.4ZM160.995 111.296L160.021 111.52L160.021 111.521L160.995 111.296ZM161.261 112.472L160.285 112.689L160.286 112.694L161.261 112.472ZM161.527 113.704L160.548 113.904L161.104 116.623L162.41 114.175L161.527 113.704ZM162.213 112.472L163.078 112.975L163.083 112.966L162.213 112.472ZM162.899 111.296L163.757 111.81L163.761 111.804L163.765 111.797L162.899 111.296ZM171.523 96.4V95.4H170.947L170.658 95.899L171.523 96.4ZM172.503 96.4L173.488 96.5731L173.694 95.4H172.503V96.4ZM169.059 116V117H169.899L170.044 116.173L169.059 116ZM168.023 116L167.039 115.827L166.832 117H168.023V116ZM170.599 101.356L171.584 101.529L171.586 101.52L170.599 101.356ZM170.767 100.348L169.785 100.162L169.783 100.173L169.781 100.184L170.767 100.348ZM170.963 99.312L171.946 99.4979L170.094 98.8184L170.963 99.312ZM170.375 100.348L171.239 100.852L171.245 100.842L170.375 100.348ZM169.787 101.356L168.924 100.852L168.921 100.856L169.787 101.356ZM162.11 116.11L158.638 101.13L156.689 101.582L160.161 116.562L162.11 116.11ZM158.634 101.113C158.552 100.786 158.474 100.458 158.402 100.131L156.449 100.565C156.526 100.91 156.607 101.254 156.693 101.599L158.634 101.113ZM158.402 100.131C158.328 99.7979 158.249 99.4364 158.165 99.0465L156.21 99.4655C156.294 99.8596 156.374 100.226 156.449 100.565L158.402 100.131ZM156.196 99.1238C156.162 99.3828 156.109 99.7114 156.036 100.113L158.003 100.471C158.08 100.051 158.138 99.6892 158.179 99.3882L156.196 99.1238ZM156.036 100.109C155.961 100.511 155.896 100.867 155.84 101.177L157.807 101.535C157.863 101.229 157.928 100.875 158.003 100.475L156.036 100.109ZM155.839 101.183L153.263 115.827L155.232 116.173L157.808 101.529L155.839 101.183ZM154.247 115H153.211V117H154.247V115ZM154.196 116.173L157.64 96.5731L155.67 96.2269L152.226 115.827L154.196 116.173ZM156.655 97.4H157.579V95.4H156.655V97.4ZM156.605 96.6235L160.021 111.52L161.97 111.072L158.554 96.1765L156.605 96.6235ZM160.021 111.521C160.104 111.882 160.192 112.271 160.285 112.689L162.238 112.255C162.144 111.833 162.054 111.438 161.97 111.071L160.021 111.521ZM160.286 112.694C160.378 113.097 160.465 113.501 160.548 113.904L162.507 113.504C162.422 113.086 162.331 112.668 162.237 112.25L160.286 112.694ZM162.41 114.175C162.628 113.765 162.851 113.365 163.078 112.975L161.349 111.969C161.109 112.382 160.875 112.803 160.645 113.233L162.41 114.175ZM163.083 112.966C163.313 112.562 163.537 112.177 163.757 111.81L162.042 110.782C161.814 111.162 161.581 111.561 161.344 111.978L163.083 112.966ZM163.765 111.797L172.389 96.901L170.658 95.899L162.034 110.795L163.765 111.797ZM171.523 97.4H172.503V95.4H171.523V97.4ZM171.518 96.2269L168.074 115.827L170.044 116.173L173.488 96.5731L171.518 96.2269ZM169.059 115H168.023V117H169.059V115ZM169.008 116.173L171.584 101.529L169.615 101.183L167.039 115.827L169.008 116.173ZM171.586 101.52C171.606 101.398 171.649 101.139 171.67 101.016C171.671 101.006 171.71 100.775 171.712 100.764C171.713 100.754 171.752 100.523 171.754 100.512L169.781 100.184C169.761 100.306 169.717 100.565 169.697 100.688C169.695 100.698 169.657 100.929 169.655 100.94C169.653 100.95 169.615 101.181 169.613 101.192L171.586 101.52ZM171.75 100.534C171.815 100.189 171.881 99.8432 171.946 99.4979L169.981 99.1261C169.915 99.4714 169.85 99.8168 169.785 100.162L171.75 100.534ZM170.094 98.8184C169.898 99.1637 169.702 99.5091 169.506 99.8544L171.245 100.842C171.441 100.496 171.637 100.151 171.833 99.8056L170.094 98.8184ZM169.512 99.8441C169.477 99.9035 169.399 100.037 169.365 100.096C169.33 100.155 169.252 100.289 169.218 100.348C169.118 100.52 169.024 100.681 168.924 100.852L170.651 101.86C170.686 101.801 170.764 101.667 170.798 101.608C170.833 101.549 170.911 101.415 170.945 101.356C171.045 101.184 171.139 101.023 171.239 100.852L169.512 99.8441ZM168.921 100.856L160.269 115.836L162.001 116.836L170.653 101.856L168.921 100.856ZM176.898 115.678L176.338 116.506L176.344 116.511L176.351 116.515L176.898 115.678ZM175.386 113.746L174.459 114.123L174.461 114.126L175.386 113.746ZM175.4 106.816L174.447 106.511L174.445 106.519L175.4 106.816ZM176.898 103.89L177.686 104.506L177.689 104.501L176.898 103.89ZM179.11 102.014L179.565 102.904L179.573 102.9L179.11 102.014ZM183.982 101.846L183.529 102.738L183.534 102.74L183.982 101.846ZM185.522 103.4L184.637 103.866L184.642 103.875L185.522 103.4ZM185.998 107.46L185.007 107.321L185.006 107.33L185.005 107.338L185.998 107.46ZM185.704 109.14V110.14H186.514L186.682 109.347L185.704 109.14ZM176.044 109.14V108.14H175.152L175.05 109.026L176.044 109.14ZM176.086 112.374L175.101 112.551L175.104 112.562L176.086 112.374ZM177.206 114.544L177.882 113.807V113.807L177.206 114.544ZM181.308 115.02L181.637 115.964L181.651 115.959L181.308 115.02ZM183.044 114.068L183.871 113.506L183.287 112.646L182.45 113.263L183.044 114.068ZM183.576 114.852L184.178 115.65L184.937 115.078L184.403 114.29L183.576 114.852ZM181.686 115.916L181.31 114.989L181.306 114.991L181.686 115.916ZM176.184 108.216L175.202 108.027L174.973 109.216H176.184V108.216ZM184.836 108.216V109.216H185.691L185.824 108.371L184.836 108.216ZM184.934 105.262L183.94 105.375L183.94 105.376L184.934 105.262ZM184.052 103.092L184.796 102.424V102.424L184.052 103.092ZM179.012 103.134L179.602 103.941L179.604 103.94L179.012 103.134ZM177.164 105.332L176.275 104.874L176.271 104.881L177.164 105.332ZM179.376 115.336C178.547 115.336 177.921 115.152 177.444 114.841L176.351 116.515C177.218 117.082 178.245 117.336 179.376 117.336V115.336ZM177.458 114.85C176.979 114.526 176.591 114.049 176.311 113.366L174.461 114.126C174.87 115.123 175.49 115.934 176.338 116.506L177.458 114.85ZM176.312 113.369C176.028 112.671 175.868 111.776 175.868 110.652H173.868C173.868 111.955 174.052 113.122 174.459 114.123L176.312 113.369ZM175.868 110.652C175.868 109.316 176.035 108.14 176.354 107.113L174.445 106.519C174.055 107.77 173.868 109.151 173.868 110.652H175.868ZM176.352 107.12C176.686 106.077 177.134 105.211 177.686 104.506L176.11 103.274C175.392 104.193 174.841 105.278 174.447 106.512L176.352 107.12ZM177.689 104.501C178.243 103.785 178.869 103.26 179.565 102.904L178.655 101.124C177.671 101.626 176.822 102.352 176.106 103.279L177.689 104.501ZM179.573 102.9C180.268 102.537 181.009 102.356 181.812 102.356V100.356C180.692 100.356 179.632 100.613 178.647 101.128L179.573 102.9ZM181.812 102.356C182.475 102.356 183.04 102.49 183.529 102.738L184.434 100.954C183.635 100.549 182.754 100.356 181.812 100.356V102.356ZM183.534 102.74C183.982 102.964 184.351 103.323 184.637 103.866L186.407 102.934C185.946 102.059 185.288 101.381 184.429 100.952L183.534 102.74ZM184.642 103.875C184.919 104.388 185.096 105.141 185.096 106.2H187.096C187.096 104.945 186.89 103.83 186.402 102.925L184.642 103.875ZM185.096 106.2C185.096 106.517 185.068 106.889 185.007 107.321L186.988 107.599C187.058 107.097 187.096 106.63 187.096 106.2H185.096ZM185.005 107.338C184.954 107.757 184.862 108.287 184.725 108.933L186.682 109.347C186.826 108.668 186.93 108.077 186.99 107.582L185.005 107.338ZM185.704 108.14H176.044V110.14H185.704V108.14ZM175.05 109.026C174.902 110.319 174.912 111.498 175.101 112.551L177.07 112.197C176.923 111.383 176.905 110.407 177.037 109.254L175.05 109.026ZM175.104 112.562C175.312 113.65 175.77 114.584 176.529 115.281L177.882 113.807C177.503 113.459 177.214 112.946 177.068 112.186L175.104 112.562ZM176.529 115.281C177.34 116.025 178.421 116.328 179.628 116.328V114.328C178.743 114.328 178.21 114.108 177.882 113.807L176.529 115.281ZM179.628 116.328C180.289 116.328 180.961 116.2 181.637 115.964L180.978 114.076C180.478 114.25 180.03 114.328 179.628 114.328V116.328ZM181.651 115.959C182.339 115.708 183.001 115.342 183.637 114.873L182.45 113.263C181.948 113.634 181.452 113.903 180.965 114.081L181.651 115.959ZM182.216 114.63L182.748 115.414L184.403 114.29L183.871 113.506L182.216 114.63ZM182.974 114.054C182.477 114.428 181.924 114.741 181.31 114.989L182.061 116.843C182.829 116.531 183.536 116.135 184.178 115.65L182.974 114.054ZM181.306 114.991C180.763 115.214 180.125 115.336 179.376 115.336V117.336C180.343 117.336 181.246 117.178 182.066 116.841L181.306 114.991ZM176.184 109.216H184.836V107.216H176.184V109.216ZM185.824 108.371C186.003 107.226 186.042 106.15 185.927 105.148L183.94 105.376C184.031 106.166 184.005 107.059 183.848 108.061L185.824 108.371ZM185.927 105.149C185.807 104.09 185.452 103.156 184.796 102.424L183.307 103.76C183.622 104.111 183.855 104.623 183.94 105.375L185.927 105.149ZM184.796 102.424C184.06 101.603 183.006 101.28 181.84 101.28V103.28C182.652 103.28 183.073 103.498 183.307 103.76L184.796 102.424ZM181.84 101.28C180.55 101.28 179.392 101.614 178.419 102.328L179.604 103.94C180.181 103.516 180.908 103.28 181.84 103.28V101.28ZM178.421 102.327C177.521 102.985 176.807 103.841 176.275 104.874L178.053 105.79C178.453 105.012 178.971 104.403 179.602 103.941L178.421 102.327ZM176.271 104.881C175.771 105.871 175.415 106.92 175.202 108.027L177.166 108.405C177.344 107.477 177.642 106.604 178.056 105.783L176.271 104.881ZM190.537 114.754L189.732 115.347L189.735 115.351L190.537 114.754ZM190.229 105.668L191.148 106.063L191.149 106.061L190.229 105.668ZM192.637 102.504L193.23 103.309L193.231 103.308L192.637 102.504ZM198.489 102.042L197.926 102.869L197.934 102.874L198.489 102.042ZM199.917 103.848L198.979 104.195L200.258 107.646L200.902 104.023L199.917 103.848ZM201.261 96.288L200.842 95.38L200.368 95.5989L200.277 96.113L201.261 96.288ZM202.353 95.784L203.338 95.9559L203.666 94.0766L201.934 94.876L202.353 95.784ZM198.825 116V117H199.666L199.81 116.172L198.825 116ZM197.789 116L196.805 115.825L196.595 117H197.789V116ZM198.153 113.956L199.138 114.131L199.772 110.569L197.398 113.3L198.153 113.956ZM196.263 114.544L195.726 113.7L195.722 113.703L196.263 114.544ZM198.433 112.36L199.264 112.917L199.382 112.74L199.418 112.531L198.433 112.36ZM199.665 105.248L200.65 105.419L200.694 105.166L200.611 104.923L199.665 105.248ZM198.265 103.134L197.625 103.902L197.631 103.907L198.265 103.134ZM193.169 103.372L193.78 104.164L193.785 104.16L193.169 103.372ZM191.167 106.172L192.096 106.542L192.097 106.54L191.167 106.172ZM191.349 113.984L190.514 114.535L190.521 114.545L191.349 113.984ZM193.785 115.336C192.701 115.336 191.924 114.943 191.34 114.157L189.735 115.351C190.718 116.674 192.106 117.336 193.785 117.336V115.336ZM191.342 114.161C190.728 113.327 190.361 112.093 190.361 110.344H188.361C188.361 112.347 188.778 114.053 189.732 115.347L191.342 114.161ZM190.361 110.344C190.361 108.678 190.633 107.259 191.148 106.063L189.311 105.273C188.668 106.765 188.361 108.463 188.361 110.344H190.361ZM191.149 106.061C191.668 104.846 192.368 103.944 193.23 103.309L192.044 101.699C190.853 102.576 189.947 103.783 189.31 105.275L191.149 106.061ZM193.231 103.308C194.086 102.677 195.07 102.356 196.221 102.356V100.356C194.665 100.356 193.26 100.801 192.043 101.7L193.231 103.308ZM196.221 102.356C196.868 102.356 197.426 102.528 197.927 102.869L199.052 101.215C198.208 100.641 197.255 100.356 196.221 100.356V102.356ZM197.934 102.874C198.431 103.205 198.773 103.638 198.979 104.195L200.855 103.501C200.501 102.546 199.891 101.775 199.044 101.21L197.934 102.874ZM200.902 104.023L202.246 96.463L200.277 96.113L198.933 103.673L200.902 104.023ZM201.68 97.196L202.772 96.692L201.934 94.876L200.842 95.38L201.68 97.196ZM201.368 95.6121L197.84 115.828L199.81 116.172L203.338 95.9559L201.368 95.6121ZM198.825 115H197.789V117H198.825V115ZM198.774 116.175L199.138 114.131L197.169 113.781L196.805 115.825L198.774 116.175ZM197.398 113.3C196.777 114.015 196.158 114.523 195.547 114.856L196.503 116.612C197.367 116.142 198.166 115.465 198.908 114.612L197.398 113.3ZM195.547 114.856C194.94 115.186 194.356 115.336 193.785 115.336V117.336C194.726 117.336 195.636 117.085 196.503 116.612L195.547 114.856ZM193.785 116.328C194.845 116.328 195.856 115.995 196.804 115.385L195.722 113.703C195.047 114.138 194.406 114.328 193.785 114.328V116.328ZM196.8 115.388C197.755 114.78 198.573 113.947 199.264 112.917L197.602 111.803C197.042 112.639 196.414 113.263 195.726 113.7L196.8 115.388ZM199.418 112.531L200.65 105.419L198.68 105.077L197.448 112.189L199.418 112.531ZM200.611 104.923C200.253 103.882 199.691 103.011 198.9 102.361L197.631 103.907C198.09 104.284 198.461 104.822 198.719 105.573L200.611 104.923ZM198.905 102.366C198.114 101.706 197.189 101.364 196.165 101.364V103.364C196.709 103.364 197.184 103.535 197.625 103.902L198.905 102.366ZM196.165 101.364C194.814 101.364 193.596 101.768 192.553 102.584L193.785 104.16C194.46 103.632 195.239 103.364 196.165 103.364V101.364ZM192.558 102.58C191.532 103.373 190.766 104.465 190.237 105.804L192.097 106.54C192.52 105.471 193.089 104.697 193.78 104.164L192.558 102.58ZM190.238 105.802C189.706 107.138 189.453 108.659 189.453 110.344H191.453C191.453 108.855 191.677 107.595 192.096 106.542L190.238 105.802ZM189.453 110.344C189.453 111.985 189.774 113.412 190.514 114.535L192.184 113.433C191.73 112.745 191.453 111.745 191.453 110.344H189.453ZM190.521 114.545C191.3 115.695 192.412 116.328 193.785 116.328V114.328C193.124 114.328 192.612 114.065 192.177 113.423L190.521 114.545ZM204.07 116L203.085 115.827L202.879 117H204.07V116ZM206.59 101.692V100.692H205.751L205.605 101.519L206.59 101.692ZM207.598 101.692L208.583 101.864L208.787 100.692H207.598V101.692ZM205.106 116V117H205.947L206.091 116.172L205.106 116ZM207.136 98.36L206.403 99.0405L206.416 99.054L206.429 99.0671L207.136 98.36ZM207.234 97.156L207.941 97.8631V97.8631L207.234 97.156ZM208.382 97.072L207.649 97.7525L207.662 97.766L207.675 97.7791L208.382 97.072ZM205.055 116.173L207.575 101.865L205.605 101.519L203.085 115.827L205.055 116.173ZM206.59 102.692H207.598V100.692H206.59V102.692ZM206.613 101.52L204.121 115.828L206.091 116.172L208.583 101.864L206.613 101.52ZM205.106 115H204.07V117H205.106V115ZM207.626 97.556C207.641 97.556 207.679 97.5588 207.728 97.5785C207.778 97.5987 207.818 97.6274 207.843 97.6529L206.429 99.0671C206.759 99.3976 207.183 99.556 207.626 99.556V97.556ZM207.869 97.6795C207.9 97.7129 207.925 97.7542 207.94 97.7964C207.955 97.8362 207.954 97.8599 207.954 97.856H205.954C205.954 98.2727 206.084 98.6968 206.403 99.0405L207.869 97.6795ZM207.954 97.856C207.954 97.8416 207.955 97.8347 207.955 97.8336C207.956 97.8328 207.955 97.8363 207.953 97.8424C207.95 97.8486 207.947 97.8546 207.944 97.8594C207.94 97.8642 207.939 97.8653 207.941 97.8631L206.527 96.4489C206.141 96.8354 205.954 97.3286 205.954 97.856H207.954ZM207.941 97.8631C207.947 97.8578 207.948 97.8575 207.944 97.8597C207.941 97.8621 207.935 97.8657 207.927 97.8691C207.919 97.8725 207.911 97.8745 207.906 97.8755C207.901 97.8765 207.901 97.876 207.906 97.876V95.876C207.377 95.876 206.899 96.0768 206.527 96.4489L207.941 97.8631ZM207.906 97.876C207.892 97.876 207.849 97.8733 207.791 97.8497C207.732 97.8252 207.683 97.7888 207.649 97.7525L209.115 96.3915C208.784 96.0357 208.35 95.876 207.906 95.876V97.876ZM207.675 97.7791C207.636 97.7398 207.607 97.6926 207.591 97.6487C207.576 97.6083 207.578 97.5886 207.578 97.604H209.578C209.578 97.1748 209.446 96.7217 209.089 96.3649L207.675 97.7791ZM207.578 97.604C207.578 97.6126 207.577 97.6153 207.578 97.6133C207.578 97.6111 207.579 97.6063 207.582 97.6C207.584 97.5936 207.587 97.5886 207.589 97.5854C207.591 97.5823 207.591 97.583 207.587 97.5872L209.037 98.9647C209.394 98.5892 209.578 98.1174 209.578 97.604H207.578ZM207.587 97.5872C207.588 97.586 207.593 97.5812 207.602 97.5753C207.61 97.5693 207.62 97.564 207.63 97.5602C207.639 97.5563 207.645 97.5551 207.646 97.5549C207.647 97.5548 207.641 97.556 207.626 97.556V99.556C208.154 99.556 208.653 99.3687 209.037 98.9647L207.587 97.5872ZM211.617 114.852L210.826 115.464L210.83 115.469L211.617 114.852ZM211.295 105.892L210.366 105.523L210.364 105.528L211.295 105.892ZM213.591 102.574L214.228 103.345L214.229 103.344L213.591 102.574ZM219.485 102.21L218.849 102.982L218.855 102.986L218.861 102.991L219.485 102.21ZM220.661 104.38L221.018 105.314L221.728 105.043L221.657 104.286L220.661 104.38ZM219.709 104.744L218.722 104.902L218.917 106.118L220.066 105.678L219.709 104.744ZM218.785 102.994L218.138 103.756L218.146 103.763L218.785 102.994ZM214.151 103.442L214.818 104.187L214.151 103.442ZM212.247 106.41L211.309 106.063L211.308 106.067L212.247 106.41ZM212.415 114.138L211.6 114.717L211.603 114.721L212.415 114.138ZM216.951 114.628L216.364 113.818L216.359 113.822L216.951 114.628ZM218.477 112.668L218.858 111.743L217.958 111.373L217.563 112.262L218.477 112.668ZM219.429 113.06L220.333 113.488L220.784 112.536L219.81 112.135L219.429 113.06ZM217.483 115.496L216.907 114.679L216.902 114.682L217.483 115.496ZM214.837 115.336C213.74 115.336 212.971 114.958 212.405 114.235L210.83 115.469C211.813 116.724 213.19 117.336 214.837 117.336V115.336ZM212.408 114.24C211.825 113.486 211.469 112.35 211.469 110.708H209.469C209.469 112.613 209.879 114.239 210.826 115.464L212.408 114.24ZM211.469 110.708C211.469 109.008 211.729 107.529 212.227 106.256L210.364 105.528C209.76 107.073 209.469 108.805 209.469 110.708H211.469ZM212.225 106.261C212.735 104.976 213.411 104.02 214.228 103.345L212.954 101.803C211.83 102.733 210.975 103.989 210.366 105.523L212.225 106.261ZM214.229 103.344C215.033 102.678 215.924 102.356 216.937 102.356V100.356C215.449 100.356 214.109 100.846 212.953 101.804L214.229 103.344ZM216.937 102.356C217.744 102.356 218.36 102.579 218.849 102.982L220.121 101.438C219.229 100.703 218.146 100.356 216.937 100.356V102.356ZM218.861 102.991C219.351 103.383 219.607 103.859 219.666 104.474L221.657 104.286C221.547 103.127 221.02 102.157 220.11 101.429L218.861 102.991ZM220.304 103.446L219.352 103.81L220.066 105.678L221.018 105.314L220.304 103.446ZM220.697 104.586C220.545 103.638 220.139 102.818 219.424 102.225L218.146 103.763C218.42 103.991 218.631 104.338 218.722 104.902L220.697 104.586ZM219.432 102.232C218.728 101.634 217.861 101.364 216.909 101.364V103.364C217.469 103.364 217.853 103.514 218.138 103.756L219.432 102.232ZM216.909 101.364C215.616 101.364 214.462 101.821 213.484 102.697L214.818 104.187C215.446 103.625 216.13 103.364 216.909 103.364V101.364ZM213.484 102.697C212.534 103.548 211.819 104.687 211.309 106.063L213.185 106.757C213.609 105.613 214.163 104.774 214.818 104.187L213.484 102.697ZM211.308 106.067C210.803 107.448 210.561 109 210.561 110.708H212.561C212.561 109.186 212.777 107.873 213.186 106.753L211.308 106.067ZM210.561 110.708C210.561 112.3 210.863 113.679 211.6 114.717L213.231 113.559C212.828 112.992 212.561 112.084 212.561 110.708H210.561ZM211.603 114.721C212.375 115.797 213.496 116.328 214.837 116.328V114.328C214.087 114.328 213.594 114.066 213.228 113.555L211.603 114.721ZM214.837 116.328C215.829 116.328 216.74 116.024 217.544 115.434L216.359 113.822C215.893 114.165 215.395 114.328 214.837 114.328V116.328ZM217.538 115.438C218.346 114.853 218.957 114.05 219.391 113.074L217.563 112.262C217.25 112.966 216.845 113.47 216.364 113.818L217.538 115.438ZM218.096 113.593L219.048 113.985L219.81 112.135L218.858 111.743L218.096 113.593ZM218.525 112.632C218.08 113.573 217.532 114.237 216.907 114.679L218.06 116.313C219.021 115.635 219.771 114.675 220.333 113.488L218.525 112.632ZM216.902 114.682C216.291 115.119 215.613 115.336 214.837 115.336V117.336C216.022 117.336 217.108 116.993 218.064 116.31L216.902 114.682ZM223.611 115.272L222.885 115.96L223.611 115.272ZM223.331 109.672L224.182 110.198L224.184 110.194L223.331 109.672ZM225.319 107.81L225.79 108.692L225.793 108.69L225.319 107.81ZM230.275 107.488L229.918 108.422L229.93 108.427L230.275 107.488ZM232.123 108.58L231.485 109.35L232.797 110.437L233.107 108.762L232.123 108.58ZM232.459 106.76L231.477 106.573L231.476 106.578L232.459 106.76ZM232.305 103.344L233.176 102.852L232.305 103.344ZM227.839 102.644L227.54 101.69L227.537 101.691L227.839 102.644ZM225.431 103.708L224.454 103.922L224.742 105.235L225.917 104.582L225.431 103.708ZM225.235 102.812L224.756 101.934L224.098 102.293L224.258 103.026L225.235 102.812ZM227.783 101.706L228.072 102.664L227.783 101.706ZM232.333 101.944L231.779 102.776L231.788 102.782L232.333 101.944ZM233.495 103.666L232.524 103.903L232.527 103.914L233.495 103.666ZM233.495 106.536L234.48 106.708L234.481 106.704L233.495 106.536ZM231.843 116V117H232.684L232.828 116.172L231.843 116ZM230.835 116L229.85 115.829L229.647 117H230.835V116ZM231.199 113.9L232.185 114.071L232.767 110.713L230.462 113.224L231.199 113.9ZM228.875 115.72L229.327 116.612L229.331 116.61L228.875 115.72ZM228.931 114.712L228.437 113.843L228.931 114.712ZM231.423 112.584L232.173 113.246L232.358 113.036L232.407 112.761L231.423 112.584ZM231.983 109.476L232.967 109.653L233.074 109.059L232.599 108.688L231.983 109.476ZM230.107 108.426L229.767 109.366L229.771 109.368L230.107 108.426ZM225.893 108.65L226.384 109.521L226.393 109.516L225.893 108.65ZM224.325 110.176L223.466 109.665L224.325 110.176ZM224.465 114.586L223.709 115.24L223.715 115.247L224.465 114.586ZM226.355 115.336C225.418 115.336 224.786 115.058 224.337 114.584L222.885 115.96C223.781 116.905 224.978 117.336 226.355 117.336V115.336ZM224.337 114.584C223.884 114.106 223.603 113.406 223.603 112.36H221.603C221.603 113.778 221.995 115.02 222.885 115.96L224.337 114.584ZM223.603 112.36C223.603 111.52 223.803 110.81 224.182 110.198L222.481 109.146C221.889 110.102 221.603 111.184 221.603 112.36H223.603ZM224.184 110.194C224.574 109.556 225.103 109.059 225.79 108.692L224.849 106.928C223.855 107.457 223.059 108.201 222.478 109.15L224.184 110.194ZM225.793 108.69C226.481 108.32 227.276 108.124 228.203 108.124V106.124C226.983 106.124 225.856 106.385 224.845 106.93L225.793 108.69ZM228.203 108.124C228.84 108.124 229.408 108.227 229.918 108.422L230.632 106.554C229.873 106.264 229.06 106.124 228.203 106.124V108.124ZM229.93 108.427C230.444 108.615 230.963 108.917 231.485 109.35L232.761 107.81C232.089 107.253 231.376 106.827 230.62 106.549L229.93 108.427ZM233.107 108.762L233.443 106.942L231.476 106.578L231.14 108.398L233.107 108.762ZM233.442 106.947C233.748 105.338 233.763 103.889 233.176 102.852L231.435 103.836C231.65 104.217 231.768 105.046 231.477 106.573L233.442 106.947ZM233.176 102.852C232.524 101.7 231.299 101.28 229.939 101.28V103.28C230.932 103.28 231.284 103.569 231.435 103.836L233.176 102.852ZM229.939 101.28C229.188 101.28 228.385 101.425 227.54 101.69L228.138 103.598C228.843 103.377 229.44 103.28 229.939 103.28V101.28ZM227.537 101.691C226.697 101.957 225.833 102.341 224.946 102.834L225.917 104.582C226.71 104.142 227.451 103.816 228.142 103.597L227.537 101.691ZM226.408 103.494L226.212 102.598L224.258 103.026L224.454 103.922L226.408 103.494ZM225.714 103.69C226.595 103.21 227.379 102.872 228.072 102.664L227.495 100.748C226.638 101.007 225.724 101.406 224.756 101.934L225.714 103.69ZM228.072 102.664C228.77 102.453 229.4 102.356 229.967 102.356V100.356C229.172 100.356 228.346 100.492 227.495 100.748L228.072 102.664ZM229.967 102.356C230.835 102.356 231.408 102.529 231.779 102.776L232.888 101.112C232.082 100.575 231.078 100.356 229.967 100.356V102.356ZM231.788 102.782C232.136 103.009 232.389 103.352 232.524 103.903L234.467 103.429C234.228 102.449 233.707 101.645 232.879 101.106L231.788 102.782ZM232.527 103.914C232.675 104.495 232.692 105.298 232.51 106.368L234.481 106.704C234.69 105.478 234.707 104.368 234.464 103.418L232.527 103.914ZM232.51 106.364L230.858 115.828L232.828 116.172L234.48 106.708L232.51 106.364ZM231.843 115H230.835V117H231.843V115ZM231.821 116.171L232.185 114.071L230.214 113.729L229.85 115.829L231.821 116.171ZM230.462 113.224C229.802 113.944 229.119 114.472 228.42 114.83L229.331 116.61C230.274 116.128 231.141 115.443 231.936 114.576L230.462 113.224ZM228.424 114.828C227.745 115.171 227.059 115.336 226.355 115.336V117.336C227.388 117.336 228.382 117.09 229.327 116.612L228.424 114.828ZM226.411 116.412C227.46 116.412 228.469 116.125 229.425 115.581L228.437 113.843C227.751 114.232 227.08 114.412 226.411 114.412V116.412ZM229.425 115.581C230.369 115.045 231.283 114.254 232.173 113.246L230.673 111.922C229.883 112.818 229.136 113.446 228.437 113.843L229.425 115.581ZM232.407 112.761L232.967 109.653L230.999 109.299L230.439 112.407L232.407 112.761ZM232.599 108.688C231.925 108.162 231.207 107.757 230.444 107.484L229.771 109.368C230.315 109.562 230.847 109.857 231.368 110.264L232.599 108.688ZM230.448 107.486C229.698 107.214 228.93 107.076 228.147 107.076V109.076C228.69 109.076 229.228 109.171 229.767 109.366L230.448 107.486ZM228.147 107.076C227.149 107.076 226.222 107.305 225.393 107.784L226.393 109.516C226.889 109.23 227.465 109.076 228.147 109.076V107.076ZM225.402 107.779C224.59 108.237 223.939 108.868 223.466 109.665L225.185 110.687C225.477 110.196 225.871 109.81 226.384 109.521L225.402 107.779ZM223.466 109.665C222.983 110.477 222.751 111.384 222.751 112.36H224.751C224.751 111.712 224.902 111.163 225.185 110.687L223.466 109.665ZM222.751 112.36C222.751 113.464 223.036 114.461 223.709 115.24L225.222 113.932C224.943 113.61 224.751 113.123 224.751 112.36H222.751ZM223.715 115.247C224.412 116.038 225.346 116.412 226.411 116.412V114.412C225.852 114.412 225.49 114.236 225.215 113.925L223.715 115.247ZM236.717 116L235.732 115.827L235.526 117H236.717V116ZM240.189 96.288L239.77 95.38L239.295 95.5993L239.204 96.1145L240.189 96.288ZM241.281 95.784L242.266 95.9559L242.594 94.0766L240.862 94.876L241.281 95.784ZM237.753 116V117H238.594L238.738 116.172L237.753 116ZM237.702 116.173L241.174 96.4615L239.204 96.1145L235.732 115.827L237.702 116.173ZM240.608 97.196L241.7 96.692L240.862 94.876L239.77 95.38L240.608 97.196ZM240.296 95.6121L236.768 115.828L238.738 116.172L242.266 95.9559L240.296 95.6121ZM237.753 115H236.717V117H237.753V115Z" fill="black" mask="url(#path-3-outside-1_1_776)"/>
<defs>
<filter id="filter0_d_1_776" x="95" y="0" width="98" height="98" filterUnits="userSpaceOnUse" color-interpolation-filters="sRGB">
<feFlood flood-opacity="0" result="BackgroundImageFix"/>
<feColorMatrix in="SourceAlpha" type="matrix" values="0 0 0 0 0 0 0 0 0 0 0 0 0 0 0 0 0 0 127 0" result="hardAlpha"/>
<feOffset dy="11"/>
<feGaussianBlur stdDeviation="6"/>
<feColorMatrix type="matrix" values="0 0 0 0 0.0352941 0 0 0 0 0.0588235 0 0 0 0 0.278431 0 0 0 0.1 0"/>
<feBlend mode="normal" in2="BackgroundImageFix" result="effect1_dropShadow_1_776"/>
<feBlend mode="normal" in="SourceGraphic" in2="effect1_dropShadow_1_776" result="shape"/>
</filter>
</defs>
</svg>
